# xmcd CD database file
#
# Track frame offsets:
#	150
#	13196
#	25875
#	44619
#	58580
#	71797
#	86982
#	101497
#	114987
#	129039
#	144050
#	157304
#	174633
#	188906
#	198464
#	213158
#
# Disc length: 3044 seconds
#
# Revision: 0
# Processed by: cddbd v1.5.2PL0 Copyright (c) Steve Scherf et al.
# Submitted via: CDex 1.51
#
DISCID=e30be210
DTITLE=Hupman Brothers - Hupman Brothers
DYEAR=2007
DGENRE=Blues
TTITLE0=Love So True
TTITLE1=Intuition
TTITLE2=Here And Now
TTITLE3=Ricky Right On
TTITLE4=Loretta
TTITLE5=Little K
TTITLE6=Close To You
TTITLE7=The Mystery
TTITLE8=The Other One
TTITLE9=The Tenfold Blues
TTITLE10=Gold Digger
TTITLE11=Sand Between My Toes
TTITLE12=2 Step
TTITLE13=Follow The Flow
TTITLE14=One Horse Town
TTITLE15=I Will Always Love You
EXTD=YEAR: 2007
EXTT0=
EXTT1=
EXTT2=
EXTT3=
EXTT4=
EXTT5=
EXTT6=
EXTT7=
EXTT8=
EXTT9=
EXTT10=
EXTT11=
EXTT12=
EXTT13=
EXTT14=
EXTT15=
PLAYORDER=
